<mxfile host="65bd71144e">
    <diagram id="8tawhGnMj8ck7dc2TSjs" name="Page-1">
        <mxGraphModel dx="1583" dy="567" grid="1" gridSize="10" guides="1" tooltips="1" connect="1" arrows="1" fold="1" page="1" pageScale="1" pageWidth="850" pageHeight="1100" math="0" shadow="0">
            <root>
                <mxCell id="0"/>
                <mxCell id="1" parent="0"/>
                <mxCell id="2" value="&lt;font style=&quot;font-size: 24px&quot;&gt;GoalTube&lt;/font&gt;" style="whiteSpace=wrap;html=1;" parent="1" vertex="1">
                    <mxGeometry x="360" y="40" width="120" height="40" as="geometry"/>
                </mxCell>
                <mxCell id="3" value="&lt;font&gt;&lt;font style=&quot;font-size: 14px&quot;&gt;1. Add youtube playlists&lt;br&gt;2. Wait for admin approval&lt;br&gt;3. Users can watch the videos and take a quiz&lt;br&gt;3. Get certified to watch approved playlists&amp;nbsp;&lt;/font&gt;&lt;br&gt;&lt;/font&gt;" style="whiteSpace=wrap;html=1;fontSize=24;" parent="1" vertex="1">
                    <mxGeometry x="80" y="200" width="180" height="200" as="geometry"/>
                </mxCell>
                <mxCell id="4" value="Mobile App" style="whiteSpace=wrap;html=1;fontSize=14;" parent="1" vertex="1">
                    <mxGeometry x="80" y="160" width="180" height="40" as="geometry"/>
                </mxCell>
                <mxCell id="6" value="Common&lt;br&gt;Database&lt;br&gt;(Firebase)" style="shape=cylinder3;whiteSpace=wrap;html=1;boundedLbl=1;backgroundOutline=1;size=15;fontSize=14;" parent="1" vertex="1">
                    <mxGeometry x="490" y="450" width="90" height="130" as="geometry"/>
                </mxCell>
                <mxCell id="12" value="&lt;font&gt;&lt;font style=&quot;font-size: 14px&quot;&gt;1. manage all the complaints&lt;br&gt;&lt;/font&gt;&lt;font size=&quot;3&quot;&gt;2. Stats related to the content&lt;br&gt;&lt;/font&gt;3. Blocking certain users&lt;br&gt;&lt;/font&gt;" style="whiteSpace=wrap;html=1;fontSize=24;" parent="1" vertex="1">
                    <mxGeometry x="700" y="200" width="280" height="120" as="geometry"/>
                </mxCell>
                <mxCell id="13" value="Admin Panel" style="whiteSpace=wrap;html=1;fontSize=14;" parent="1" vertex="1">
                    <mxGeometry x="700" y="160" width="280" height="40" as="geometry"/>
                </mxCell>
                <mxCell id="14" value="&lt;font&gt;&lt;span style=&quot;font-size: 14px&quot;&gt;1. ML is used to create the questions for the quiz&lt;/span&gt;&lt;br&gt;&lt;/font&gt;" style="whiteSpace=wrap;html=1;fontSize=24;" parent="1" vertex="1">
                    <mxGeometry x="330" y="200" width="180" height="100" as="geometry"/>
                </mxCell>
                <mxCell id="15" value="Machine Learing" style="whiteSpace=wrap;html=1;fontSize=14;" parent="1" vertex="1">
                    <mxGeometry x="330" y="160" width="180" height="40" as="geometry"/>
                </mxCell>
                <mxCell id="18" value="" style="edgeStyle=none;html=1;" parent="1" source="16" target="17" edge="1">
                    <mxGeometry relative="1" as="geometry"/>
                </mxCell>
                <mxCell id="16" value="Enter Playlist" style="whiteSpace=wrap;html=1;" parent="1" vertex="1">
                    <mxGeometry x="-30" y="920" width="120" height="40" as="geometry"/>
                </mxCell>
                <mxCell id="20" style="edgeStyle=none;html=1;" parent="1" source="17" target="19" edge="1">
                    <mxGeometry relative="1" as="geometry"/>
                </mxCell>
                <mxCell id="23" style="edgeStyle=none;html=1;entryX=0;entryY=1;entryDx=0;entryDy=0;" parent="1" source="17" target="22" edge="1">
                    <mxGeometry relative="1" as="geometry"/>
                </mxCell>
                <mxCell id="35" style="edgeStyle=none;html=1;fontSize=14;" parent="1" source="17" target="33" edge="1">
                    <mxGeometry relative="1" as="geometry"/>
                </mxCell>
                <mxCell id="17" value="Server&lt;br&gt;Node JS/Flask" style="ellipse;whiteSpace=wrap;html=1;" parent="1" vertex="1">
                    <mxGeometry x="195" y="910" width="120" height="60" as="geometry"/>
                </mxCell>
                <mxCell id="21" style="edgeStyle=none;html=1;" parent="1" source="19" edge="1">
                    <mxGeometry relative="1" as="geometry">
                        <mxPoint x="301" y="962" as="targetPoint"/>
                    </mxGeometry>
                </mxCell>
                <mxCell id="19" value="ML&lt;br&gt;Classifier&lt;br&gt;Yes/No" style="rhombus;whiteSpace=wrap;html=1;" parent="1" vertex="1">
                    <mxGeometry x="380" y="1015" width="90" height="90" as="geometry"/>
                </mxCell>
                <mxCell id="24" style="edgeStyle=none;html=1;entryX=1;entryY=0;entryDx=0;entryDy=0;" parent="1" source="22" target="17" edge="1">
                    <mxGeometry relative="1" as="geometry"/>
                </mxCell>
                <mxCell id="22" value="ML Quiz model" style="rhombus;whiteSpace=wrap;html=1;" parent="1" vertex="1">
                    <mxGeometry x="380" y="740" width="80" height="80" as="geometry"/>
                </mxCell>
                <mxCell id="27" value="Admin Panel" style="whiteSpace=wrap;html=1;" parent="1" vertex="1">
                    <mxGeometry x="480" y="840" width="200" height="40" as="geometry"/>
                </mxCell>
                <mxCell id="30" value="&lt;font style=&quot;font-size: 14px&quot;&gt;&lt;font style=&quot;font-size: 14px&quot;&gt;1. Manage all the complaints&lt;br&gt;&lt;/font&gt;&lt;font style=&quot;font-size: 14px&quot;&gt;2. Stats related to the content&lt;br&gt;&lt;/font&gt;3. Blocking certain users&lt;br&gt;&lt;/font&gt;" style="whiteSpace=wrap;html=1;fontSize=24;" parent="1" vertex="1">
                    <mxGeometry x="480" y="880" width="200" height="120" as="geometry"/>
                </mxCell>
                <mxCell id="33" value="Firebase" style="whiteSpace=wrap;html=1;fontSize=14;" parent="1" vertex="1">
                    <mxGeometry x="195" y="1050" width="120" height="40" as="geometry"/>
                </mxCell>
                <mxCell id="34" value="React App" style="text;html=1;align=center;verticalAlign=middle;resizable=0;points=[];autosize=1;strokeColor=none;fillColor=none;fontSize=14;" parent="1" vertex="1">
                    <mxGeometry x="-10" y="900" width="80" height="20" as="geometry"/>
                </mxCell>
                <mxCell id="37" value="Backend" style="text;html=1;align=center;verticalAlign=middle;resizable=0;points=[];autosize=1;strokeColor=none;fillColor=none;fontSize=14;" parent="1" vertex="1">
                    <mxGeometry x="220" y="890" width="70" height="20" as="geometry"/>
                </mxCell>
            </root>
        </mxGraphModel>
    </diagram>
</mxfile>